<?xml version="1.0" encoding="UTF-8" standalone="no"?>
<svg
   xmlns:dc="http://purl.org/dc/elements/1.1/"
   xmlns:cc="http://creativecommons.org/ns#"
   xmlns:rdf="http://www.w3.org/1999/02/22-rdf-syntax-ns#"
   xmlns:svg="http://www.w3.org/2000/svg"
   xmlns="http://www.w3.org/2000/svg"
   xmlns:sodipodi="http://sodipodi.sourceforge.net/DTD/sodipodi-0.dtd"
   xmlns:inkscape="http://www.inkscape.org/namespaces/inkscape"
   viewBox="0 0 500 500"
   version="1.1"
   id="svg3711"
   sodipodi:docname="Logo.svg"
   width="500"
   height="500"
   inkscape:version="0.92.2 (5c3e80d, 2017-08-06)"
   inkscape:export-filename="C:\Users\Modelmat\OneDrive - NSW Department of Education\Desktop\Logo.png"
   inkscape:export-xdpi="299.90399"
   inkscape:export-ydpi="299.90399">
  <metadata
     id="metadata3717">
    <rdf:RDF>
      <cc:Work
         rdf:about="">
        <dc:format>image/svg+xml</dc:format>
        <dc:type
           rdf:resource="http://purl.org/dc/dcmitype/StillImage" />
        <dc:title></dc:title>
      </cc:Work>
    </rdf:RDF>
  </metadata>
  <defs
     id="defs3715" />
  <sodipodi:namedview
     pagecolor="#f7cdcd"
     bordercolor="#666666"
     borderopacity="1"
     objecttolerance="10"
     gridtolerance="10"
     guidetolerance="10"
     inkscape:pageopacity="1"
     inkscape:pageshadow="2"
     inkscape:window-width="1920"
     inkscape:window-height="1017"
     id="namedview3713"
     showgrid="false"
     inkscape:zoom="1.2266138"
     inkscape:cx="149.10604"
     inkscape:cy="236.94827"
     inkscape:window-x="-8"
     inkscape:window-y="-8"
     inkscape:window-maximized="1"
     inkscape:current-layer="svg3711"
     inkscape:pagecheckerboard="false" />
  <path
     d="m 401.09135,357.25785 0.0101,-214.51571 23.8971,1e-5 L 424.99926,75 h -67.74129 v 26.13714 l -214.51598,0.0107 V 75.00071 L 75.000001,75 75,142.74142 l 23.911374,2e-5 -0.01,214.51713 H 75.000033 l 10e-7,67.74143 67.741986,-7.2e-4 v -21.66143 l 214.51526,-0.0101 1e-5,21.67142 67.74199,7.2e-4 L 425,357.25776 Z m -258.34943,30.61428 v -30.61428 l -28.37423,-1e-5 0.0101,-214.51569 h 28.36423 v -26.12857 l 214.51524,-0.0101 v 26.13858 l 28.37851,-2e-5 -0.0101,214.51572 h -28.36851 l 10e-6,30.60429 z"
     id="path3709"
     inkscape:connector-curvature="0"
     style="fill:#e66a4b;fill-opacity:1;stroke:none;stroke-width:1.01015151;stroke-opacity:1" />
  <g
     transform="matrix(1.2087638,0,0,1.2087695,8.283486,8.813627)"
     style="fill:#a084ad"
     id="g3743">
    <path
       inkscape:connector-curvature="0"
       d="m 285.129,234.805 -35.383,-35.383 -10.411,10.411 20.279,20.279 -24.526,0.462 -4,0.075 -0.079,4.242 -0.458,24.284 -20.279,-20.279 -0.587,0.587 -9.824,9.824 35.227,35.226 16.719,16.718 1.125,-48.759 48.758,-1.125 z m -144.804,-65.856 23.963,-0.61 4.379,-0.111 0.104,-4.116 0.617,-24.226 20.062,20.062 10.411,-10.41 -35.573,-35.574 -16.155,-16.155 -1.439,48.446 -48.445,1.439 16.418,16.418 35.31,35.31 10.41,-10.411 z"
       id="path3739" />
    <path
       inkscape:connector-curvature="0"
       d="m 301.582,147.585 -48.446,-1.439 -1.438,-48.445 -16.61,16.61 -35.227,35.226 10.411,10.411 20.17,-20.171 0.71,24.335 0.12,4.116 3.816,0.111 24.635,0.718 -20.171,20.171 10.194,10.194 35.31,-35.31 z m -132.085,111.698 -0.548,-24.295 -0.098,-4.339 -4.563,-0.102 -24.072,-0.544 20.171,-20.17 -10.41,-10.411 -35.653,35.653 -16.184,16.184 48.759,1.125 1.125,48.759 16.264,-16.263 35.573,-35.573 -10.194,-10.195 z"
       id="path3741" />
  </g>
  <g
     transform="matrix(1.2087638,0,0,1.2087695,8.283486,8.813627)"
     style="fill:#b79fc1"
     id="g3749">
    <path
       inkscape:connector-curvature="0"
       d="M 114.667,164.5 H 91.388 l 33.239,35.306 -33.239,35.402 22.936,-0.084 35.653,-35.484 z m 193.885,0 h -23.496 l -35.31,35.116 35.383,35.285 23.423,-0.085 -33.683,-35.14 z M 164.5,284.88 v 23.232 L 200,274.43 235.5,308.111 V 284.533 L 200.174,249.307 Z M 200.067,149.537 235.5,114.311 V 90.949 L 200,124.188 164.5,90.949 v 23.015 l 35.57,35.574 z m 35.021,56.049 -5.946,-5.947 -29.064,29.063 6.228,6.228 3.966,3.966 20.279,20.279 0.458,-24.284 0.079,-4.242 4,-0.075 24.526,-0.462 -20.279,-20.279 z m -41.473,-41.474 -4.165,-4.164 -20.062,-20.062 -0.617,24.226 -0.104,4.116 -4.379,0.111 -23.963,0.61 20.062,20.062 3.901,3.901 6.51,6.51 29.063,-29.063 z m 41.473,29.58 4.464,-4.464 20.171,-20.171 -24.635,-0.718 -3.816,-0.111 -0.12,-4.116 -0.71,-24.335 -20.17,20.171 h -0.001 l -4.164,4.164 -6.246,6.247 29.281,29.28 z"
       id="path3745" />
    <path
       inkscape:connector-curvature="0"
       d="m 164.288,205.932 -3.901,3.901 -20.171,20.17 24.072,0.544 4.563,0.102 0.098,4.339 0.548,24.295 20.17,-20.171 4.164,-4.163 6.247,-6.247 -29.28,-29.28 z"
       id="path3747" />
  </g>
  <g
     transform="matrix(0.19159603,0,0,0.19156082,211.76171,211.85421)"
     style="fill:#66e2a4"
     id="g3759">
    <path
       inkscape:connector-curvature="0"
       d="m 158.477,100.306 -16.053,0.009 -15.217,26.431 11.42,-6.601 z m -24.25,183.685 8.197,14.21 30.908,-0.02 -11.961,-6.894 z m 164.239,-111.258 0.004,13.646 7.172,26.824 8.108,-14.029 z m -98.885,140.574 -0.032,-0.018 v 0.036 z m 98.87,-171.23 -0.032,0.018 0.032,0.019 z m -197.821,-0.058 -0.032,0.019 0.031,0.017 z m -0.099,0.058 v 0.037 l 0.077,-0.015 0.008,0.005 v -0.014 l -0.008,0.002 z"
       id="path3755" />
    <path
       inkscape:connector-curvature="0"
       d="m 298.49,256.264 -10.257,-5.925 -3.041,-1.758 -23.407,-13.52 -25.364,14.583 -0.038,-29.259 -36.716,-21.21 -0.013,-0.008 85.51,-49.423 -0.008,-0.024 0.005,-0.003 0.016,0.027 3.03,-1.752 10.199,-5.897 -0.01,-0.006 -13.919,-8.046 -12.58,-7.272 -34.214,-19.778 26.946,7.204 -8.027,-13.888 0.03,-0.057 -30.595,0.018 L 199.5,84.938 v 42.59 l 25.316,14.668 -25.316,14.669 V 199.5 h 0.028 l -85.56,-49.533 -3.143,-1.924 -10.148,-5.904 -0.016,0.189 -0.015,0.172 h -0.038 l -0.108,-0.445 v 0.059 l 0.093,-0.244 10.178,5.63 h -0.003 l -10.152,-5.625 0.002,16.129 -0.006,0.063 0.002,14.829 -0.008,39.178 -7.171,-26.678 -8.03,13.953 15.2,26.353 -0.008,30.56 10.289,-5.943 2.939,-1.697 23.475,-13.561 0.039,-29.259 25.365,14.583 36.703,-21.203 -85.461,-49.403 85.468,49.399 -0.009,0.004 0.095,0.056 v 0.015 -0.029 0.095 l -0.011,-0.066 -0.019,0.081 0.03,99.019 v 3.288 l 0.017,11.641 13.9,-8.001 12.392,-7.136 34.525,-19.895 -19.87,19.884 16.168,-0.011 -0.03,-0.078 15.29,-26.453 z"
       id="path3757" />
  </g>
  <g
     transform="matrix(0.19159603,0,0,0.19156082,211.76171,211.85421)"
     style="fill:#4ad38b"
     id="g3763">
    <path
       inkscape:connector-curvature="0"
       d="M 113.952,149.742 199.5,199.051 V 156.865 L 174.185,142.196 199.5,127.528 v -42.59 l -14.006,8.105 -12.543,7.255 -34.328,19.847 -11.418,6.601 -26.529,15.337 10.14,5.848 z m 85.548,148.42 -0.013,-98.924 -0.089,-0.056 -36.699,21.203 -0.035,29.259 -25.365,-14.583 -23.475,13.561 -2.938,1.697 -10.289,5.945 14.066,8.106 12.352,7.118 34.356,19.799 11.961,6.894 26.188,15.101 -0.02,-11.736 z m 98.985,-58.081 -0.004,-14.49 -0.012,-39.212 -0.004,-13.646 -0.009,-30.678 -0.061,0.034 0.01,0.006 -10.199,5.896 -3.03,1.752 -85.51,49.432 36.716,21.209 25.364,-14.583 0.038,29.259 23.407,13.521 3.041,1.758 10.257,5.925 z m -0.034,-98.004 v 0.037 l -0.032,-0.019 z"
       id="path3761" />
  </g>
</svg>
