<svg xmlns="http://www.w3.org/2000/svg" width="400" height="400" viewBox="0 0 400 400" xmlns:sketchjs="https://sketch.io/dtd/" sketchjs:version="3" sketchjs:keywords="Dice, cube, box, abstract" sketchjs:license="CC BY" sketchjs:source="[Logomakr](http://logomakr.com)"><g fill="#66E2A4"><path d="M158.477 100.306l-16.053.009-15.217 26.431 11.42-6.601zM134.227 283.991l8.197 14.21 30.908-.02-11.961-6.894zM298.466 172.733l.004 13.646 7.172 26.824 8.108-14.029zM199.581 313.307l-.032-.018v.036zM298.451 142.077l-.032.018.032.019zM100.63 142.019l-.032.019.031.017zM100.531 142.077v.037l.077-.015.008.005v-.014l-.008.002z"/><path d="M298.49 256.264l-10.257-5.925-3.041-1.758-23.407-13.52-25.364 14.583-.038-29.259-36.716-21.21-.013-.008 85.51-49.423-.008-.024.005-.003.016.027 3.03-1.752 10.199-5.897-.01-.006-13.919-8.046-12.58-7.272-34.214-19.778 26.946 7.204-8.027-13.888.03-.057-30.595.018L199.5 84.938v42.59l25.316 14.668-25.316 14.669V199.5h.028l-85.56-49.533-3.143-1.924-10.148-5.904-.016.189-.015.172h-.038l-.108-.445V142.114l.093-.244 10.178 5.63h-.003l-10.152-5.625.002 16.129-.006.063.002 14.829-.008 39.178-7.171-26.678-8.03 13.953 15.2 26.353-.008 30.56 10.289-5.943 2.939-1.697 23.475-13.561.039-29.259 25.365 14.583 36.703-21.203-85.461-49.403 85.468 49.399-.009.004.095.056v.015-.029.095l-.011-.066-.019.081.03 99.019v3.288l.017 11.641 13.9-8.001 12.392-7.136 34.525-19.895-19.87 19.884 16.168-.011-.03-.078 15.29-26.453z"/></g><g fill="#4AD38B"><path d="M113.952 149.742l85.548 49.309v-42.186l-25.315-14.669 25.315-14.668v-42.59l-14.006 8.105-12.543 7.255-34.328 19.847-11.418 6.601-26.529 15.337 10.14 5.848zM199.5 298.162l-.013-98.924-.089-.056-36.699 21.203-.035 29.259-25.365-14.583-23.475 13.561-2.938 1.697-10.289 5.945 14.066 8.106 12.352 7.118 34.356 19.799 11.961 6.894 26.188 15.101-.02-11.736zM298.485 240.081l-.004-14.49-.012-39.212-.004-13.646-.009-30.678-.061.034.01.006-10.199 5.896-3.03 1.752-85.51 49.432 36.716 21.209 25.364-14.583.038 29.259 23.407 13.521 3.041 1.758 10.257 5.925-.004-16.183zm-.034-98.004v.037l-.032-.019.032-.018z"/></g></svg>