<svg xmlns="http://www.w3.org/2000/svg" width="400" height="400" viewBox="0 0 400 400" xmlns:sketchjs="https://sketch.io/dtd/" sketchjs:version="3" sketchjs:keywords="explosion, starburst, jagged, abstract" sketchjs:license="CC BY" sketchjs:source="[Logomakr](http://logomakr.com)"><g fill="#A084AD"><path d="M285.129 234.805l-35.383-35.383-10.411 10.411 20.279 20.279-24.526.462-4 .075-.079 4.242-.458 24.284-20.279-20.279-.587.587-9.824 9.824 35.227 35.226 16.719 16.718 1.125-48.759 48.758-1.125zM140.325 168.949l23.963-.61 4.379-.111.104-4.116.617-24.226 20.062 20.062 10.411-10.41-35.573-35.574-16.155-16.155-1.439 48.446-48.445 1.439 16.418 16.418 35.31 35.31 10.41-10.411z"/><path d="M301.582 147.585l-48.446-1.439-1.438-48.445-16.61 16.61-35.227 35.226 10.411 10.411 20.17-20.171.71 24.335.12 4.116 3.816.111 24.635.718-20.171 20.171 10.194 10.194 35.31-35.31zM169.497 259.283l-.548-24.295-.098-4.339-4.563-.102-24.072-.544 20.171-20.17-10.41-10.411-35.653 35.653-16.184 16.184 48.759 1.125 1.125 48.759 16.264-16.263 35.573-35.573-10.194-10.195z"/></g><g fill="#B79FC1"><path d="M114.667 164.5H91.388l33.239 35.306-33.239 35.402 22.936-.084 35.653-35.484zM308.552 164.5h-23.496l-35.31 35.116 35.383 35.285 23.423-.085-33.683-35.14zM164.5 284.88v23.232L200 274.43l35.5 33.681v-23.578l-35.326-35.226zM200.067 149.537l35.433-35.226V90.949L200 124.188l-35.5-33.239v23.015l35.57 35.574zM235.088 205.586l-5.946-5.947-29.064 29.063 6.228 6.228 3.966 3.966 20.279 20.279.458-24.284.079-4.242 4-.075 24.526-.462-20.279-20.279zM193.615 164.112l-4.165-4.164-20.062-20.062-.617 24.226-.104 4.116-4.379.111-23.963.61 20.062 20.062 3.901 3.901 6.51 6.51 29.063-29.063zM235.088 193.692l4.464-4.464 20.171-20.171-24.635-.718-3.816-.111-.12-4.116-.71-24.335-20.17 20.171h-.001l-4.164 4.164-6.246 6.247 29.281 29.28z"/><path d="M164.288 205.932l-3.901 3.901-20.171 20.17 24.072.544 4.563.102.098 4.339.548 24.295 20.17-20.171 4.164-4.163 6.247-6.247-29.28-29.28z"/></g></svg>